<svg width="1633" height="2051" viewBox="0 0 1633 2051" fill="none" xmlns="http://www.w3.org/2000/svg">
<g filter="url(#filter0_f_2_1466)">
<path d="M732.913 1042.22C736.164 1158.99 606.809 1227.26 676.111 1328.45C690.284 1349.15 699.894 1360.34 719.35 1376.15C832.72 1468.26 931.956 1281.19 967.548 1151.14C986.237 1082.86 984.886 1041.11 977.866 967.794C971.561 901.947 972.515 856.261 944.458 794.024C921.535 743.176 901.362 707.356 853.462 678.638C810.055 652.614 771.947 640.906 730.061 660.167C685.629 680.599 666.779 708.161 654.67 756.723C629.754 856.647 729.96 936.174 732.913 1042.22Z" fill="#F6D249" fill-opacity="0.4"/>
</g>
<defs>
<filter id="filter0_f_2_1466" x="0.693939" y="0.605713" width="1631.96" height="2050.13" filterUnits="userSpaceOnUse" color-interpolation-filters="sRGB">
<feFlood flood-opacity="0" result="BackgroundImageFix"/>
<feBlend mode="normal" in="SourceGraphic" in2="BackgroundImageFix" result="shape"/>
<feGaussianBlur stdDeviation="325" result="effect1_foregroundBlur_2_1466"/>
</filter>
</defs>
</svg>
