<svg width="35" height="35" viewBox="0 0 35 35" fill="none" xmlns="http://www.w3.org/2000/svg">
<path d="M18.7375 4.01274C18.4093 3.68467 17.9643 3.50037 17.5002 3.50037C17.0362 3.50037 16.5911 3.68467 16.263 4.01274L4.01297 16.2627C3.6942 16.5928 3.51781 17.0348 3.52179 17.4937C3.52578 17.9525 3.70983 18.3915 4.03429 18.7159C4.35876 19.0404 4.79768 19.2244 5.25652 19.2284C5.71537 19.2324 6.15742 19.056 6.48747 18.7372L7.00022 18.2245V29.75C7.00022 30.2141 7.1846 30.6592 7.51279 30.9874C7.84098 31.3156 8.28609 31.5 8.75022 31.5H12.2502C12.7144 31.5 13.1595 31.3156 13.4877 30.9874C13.8158 30.6592 14.0002 30.2141 14.0002 29.75V26.25C14.0002 25.7859 14.1846 25.3407 14.5128 25.0126C14.841 24.6844 15.2861 24.5 15.7502 24.5H19.2502C19.7144 24.5 20.1595 24.6844 20.4877 25.0126C20.8158 25.3407 21.0002 25.7859 21.0002 26.25V29.75C21.0002 30.2141 21.1846 30.6592 21.5128 30.9874C21.841 31.3156 22.2861 31.5 22.7502 31.5H26.2502C26.7143 31.5 27.1595 31.3156 27.4877 30.9874C27.8158 30.6592 28.0002 30.2141 28.0002 29.75V18.2245L28.513 18.7372C28.843 19.056 29.2851 19.2324 29.7439 19.2284C30.2028 19.2244 30.6417 19.0404 30.9662 18.7159C31.2906 18.3915 31.4747 17.9525 31.4787 17.4937C31.4826 17.0348 31.3062 16.5928 30.9875 16.2627L18.7375 4.01274Z" fill="white"/>
</svg>
