<svg width="35" height="35" viewBox="0 0 35 35" fill="none" xmlns="http://www.w3.org/2000/svg">
<path d="M18.1895 3.64009C17.9716 3.54669 17.737 3.49854 17.5 3.49854C17.2629 3.49854 17.0284 3.54669 16.8105 3.64009L4.56048 8.89009C4.2448 9.02457 3.97562 9.24889 3.78642 9.53514C3.59721 9.8214 3.49634 10.157 3.49634 10.5001C3.49634 10.8432 3.59721 11.1788 3.78642 11.465C3.97562 11.7513 4.2448 11.9756 4.56048 12.1101L9.18748 14.0893C9.35922 13.8951 9.57203 13.7415 9.81048 13.6396L16.8105 10.6401C17.0223 10.5457 17.2508 10.4943 17.4826 10.489C17.7145 10.4836 17.9451 10.5244 18.161 10.609C18.377 10.6936 18.5739 10.8202 18.7405 10.9816C18.9071 11.1429 19.0399 11.3358 19.1313 11.5489C19.2227 11.7621 19.2708 11.9913 19.2728 12.2232C19.2749 12.4551 19.2308 12.6851 19.1431 12.8998C19.0555 13.1145 18.9261 13.3097 18.7624 13.4739C18.5986 13.6382 18.4039 13.7683 18.1895 13.8566L13.4172 15.9041L16.8122 17.3583C17.0299 17.4515 17.2641 17.4995 17.5009 17.4995C17.7376 17.4995 17.9719 17.4515 18.1895 17.3583L30.4395 12.1083C30.7541 11.9734 31.0223 11.749 31.2107 11.4632C31.3991 11.1773 31.4995 10.8425 31.4995 10.5001C31.4995 10.1577 31.3991 9.82286 31.2107 9.537C31.0223 9.25114 30.7541 9.02682 30.4395 8.89184L18.1895 3.64184V3.64009ZM5.79248 16.4448L8.74998 17.7101V24.8886C8.14405 24.7508 7.53047 24.6491 6.91248 24.5841C6.51373 24.5422 6.14147 24.3646 5.85796 24.0811C5.57445 23.7976 5.39689 23.4253 5.35498 23.0266C5.12484 20.8232 5.2728 18.5967 5.79248 16.4431V16.4448ZM16.275 29.0028C15.092 27.8421 13.7337 26.8748 12.25 26.1363V19.2116L15.4315 20.5766C16.0851 20.8568 16.7888 21.0013 17.5 21.0013C18.2111 21.0013 18.9149 20.8568 19.5685 20.5766L29.2075 16.4448C29.7302 18.5979 29.8782 20.825 29.645 23.0283C29.6031 23.4271 29.4255 23.7994 29.142 24.0829C28.8585 24.3664 28.4862 24.5439 28.0875 24.5858C24.5569 24.9569 21.2564 26.514 18.725 29.0028C18.3979 29.3235 17.958 29.5031 17.5 29.5031C17.0419 29.5031 16.6021 29.3235 16.275 29.0028ZM10.5 31.5001C10.9641 31.5001 11.4092 31.3157 11.7374 30.9875C12.0656 30.6593 12.25 30.2142 12.25 29.7501V26.1363C11.137 25.5834 9.96202 25.1651 8.74998 24.8903V29.7501C8.74998 30.2142 8.93436 30.6593 9.26254 30.9875C9.59073 31.3157 10.0359 31.5001 10.5 31.5001Z" fill="white"/>
</svg>
