<svg width="1109" height="87" viewBox="0 0 1109 87" fill="none" xmlns="http://www.w3.org/2000/svg">
<path d="M382.762 64.2032H402.233H382.762ZM392.5 4V8.30023V4ZM419.017 15.3354L416.071 18.3757L419.017 15.3354ZM430 42.702H425.833H430ZM359.167 42.702H355H359.167ZM368.929 18.3757L365.983 15.3354L368.929 18.3757ZM377.767 57.9076C374.854 54.9004 372.87 51.0693 372.067 46.8986C371.263 42.728 371.676 38.4051 373.253 34.4766C374.83 30.5481 377.5 27.1904 380.926 24.8281C384.352 22.4658 388.38 21.2049 392.5 21.2049C396.62 21.2049 400.648 22.4658 404.074 24.8281C407.5 27.1904 410.17 30.5481 411.747 34.4766C413.324 38.4051 413.737 42.728 412.933 46.8986C412.13 51.0693 410.146 54.9004 407.233 57.9076L404.95 60.2598C403.645 61.6073 402.609 63.207 401.903 64.9674C401.197 66.7279 400.833 68.6147 400.833 70.5202V72.8036C400.833 75.0846 399.955 77.2721 398.393 78.885C396.83 80.4979 394.71 81.4041 392.5 81.4041C390.29 81.4041 388.17 80.4979 386.607 78.885C385.045 77.2721 384.167 75.0846 384.167 72.8036V70.5202C384.167 66.6715 382.683 62.9776 380.05 60.2598L377.767 57.9076Z" stroke="#D66142" stroke-width="8" stroke-linecap="round" stroke-linejoin="round"/>
<path d="M1071.5 74.75C1088.76 74.75 1102.75 60.7589 1102.75 43.5C1102.75 26.2411 1088.76 12.25 1071.5 12.25C1054.24 12.25 1040.25 26.2411 1040.25 43.5C1040.25 60.7589 1054.24 74.75 1071.5 74.75Z" stroke="#D66142" stroke-width="8" stroke-linecap="round" stroke-linejoin="round"/>
<path d="M1040.25 43.5H1102.75" stroke="#D66142" stroke-width="8" stroke-linecap="round" stroke-linejoin="round"/>
<path d="M1071.5 12.25C1079.32 20.8074 1083.76 31.9126 1084 43.5C1083.76 55.0874 1079.32 66.1926 1071.5 74.75C1063.68 66.1926 1059.24 55.0874 1059 43.5C1059.24 31.9126 1063.68 20.8074 1071.5 12.25V12.25Z" stroke="#D66142" stroke-width="8" stroke-linecap="round" stroke-linejoin="round"/>
<path d="M731.875 54.2357C743.956 54.2357 753.75 43.8855 753.75 31.1179C753.75 18.3502 743.956 8 731.875 8C719.794 8 710 18.3502 710 31.1179C710 43.8855 719.794 54.2357 731.875 54.2357Z" stroke="#D66142" stroke-width="8" stroke-linecap="round" stroke-linejoin="round"/>
<path d="M720.031 50.5699L716.25 80.656L731.875 70.7484L747.5 80.656L743.719 50.5369" stroke="#D66142" stroke-width="8" stroke-linecap="round" stroke-linejoin="round"/>
<path d="M9.375 21.375L31.4687 74.4062L39.3125 51.3125L62.4062 43.4687L9.375 21.375Z" stroke="#D66142" stroke-width="8" stroke-linecap="round" stroke-linejoin="round"/>
<path d="M40.625 52.625L59.375 71.375" stroke="#D66142" stroke-width="8" stroke-linecap="round" stroke-linejoin="round"/>
</svg>
