<svg width="136" height="46" viewBox="0 0 136 46" fill="none" xmlns="http://www.w3.org/2000/svg">
<path d="M123 3H103C97.4772 3 93 7.47715 93 13V33C93 38.5228 97.4772 43 103 43H123C128.523 43 133 38.5228 133 33V13C133 7.47715 128.523 3 123 3Z" stroke="white" stroke-width="6" stroke-linecap="round" stroke-linejoin="round"/>
<path d="M120.999 21.74C121.246 23.4045 120.962 25.1044 120.187 26.598C119.412 28.0916 118.186 29.3028 116.683 30.0593C115.18 30.8159 113.476 31.0792 111.815 30.8119C110.154 30.5445 108.619 29.7602 107.429 28.5703C106.239 27.3805 105.455 25.8457 105.188 24.1844C104.92 22.5231 105.184 20.8198 105.94 19.3167C106.697 17.8137 107.908 16.5875 109.401 15.8125C110.895 15.0375 112.595 14.7532 114.259 15C115.957 15.2518 117.529 16.0429 118.743 17.2566C119.956 18.4703 120.748 20.0421 120.999 21.74Z" stroke="white" stroke-width="6" stroke-linecap="round" stroke-linejoin="round"/>
<path d="M31.4744 15.6317C34.8245 15.6317 38.0373 16.9625 40.4062 19.3314C42.7751 21.7003 44.1059 24.9132 44.1059 28.2633V43.0001H35.6849V28.2633C35.6849 27.1466 35.2413 26.0756 34.4516 25.286C33.662 24.4964 32.5911 24.0528 31.4744 24.0528C30.3577 24.0528 29.2867 24.4964 28.4971 25.286C27.7074 26.0756 27.2638 27.1466 27.2638 28.2633V43.0001H18.8428V28.2633C18.8428 24.9132 20.1736 21.7003 22.5425 19.3314C24.9114 16.9625 28.1242 15.6317 31.4744 15.6317Z" fill="white" stroke="white" stroke-width="3" stroke-linecap="round" stroke-linejoin="round"/>
<path d="M2 17.7369H10.4211V43.0001H2V17.7369Z" fill="white" stroke="white" stroke-width="3" stroke-linecap="round" stroke-linejoin="round"/>
<path d="M10.4211 7.21053C10.4211 9.53594 8.53594 11.4211 6.21053 11.4211C3.88512 11.4211 2 9.53594 2 7.21053C2 4.88512 3.88512 3 6.21053 3C8.53594 3 10.4211 4.88512 10.4211 7.21053Z" fill="white" stroke="white" stroke-width="3" stroke-linecap="round" stroke-linejoin="round"/>
</svg>
