<svg width="136" height="47" viewBox="0 0 136 47" fill="none" xmlns="http://www.w3.org/2000/svg">
<path d="M123 3.92676H103C97.4772 3.92676 93 8.40391 93 13.9268V33.9268C93 39.4496 97.4772 43.9268 103 43.9268H123C128.523 43.9268 133 39.4496 133 33.9268V13.9268C133 8.40391 128.523 3.92676 123 3.92676Z" stroke="white" stroke-width="6" stroke-linecap="round" stroke-linejoin="round"/>
<path d="M120.999 22.6668C121.246 24.3312 120.962 26.0312 120.187 27.5248C119.412 29.0184 118.186 30.2296 116.683 30.9861C115.18 31.7426 113.476 32.0059 111.815 31.7386C110.154 31.4713 108.619 30.6869 107.429 29.4971C106.239 28.3072 105.455 26.7725 105.188 25.1112C104.92 23.4499 105.184 21.7465 105.94 20.2435C106.697 18.7405 107.908 17.5142 109.401 16.7392C110.895 15.9642 112.595 15.6799 114.259 15.9268C115.957 16.1785 117.529 16.9697 118.743 18.1834C119.956 19.397 120.748 20.9689 120.999 22.6668Z" stroke="white" stroke-width="6" stroke-linecap="round" stroke-linejoin="round"/>
<path d="M31.4744 16.5585C34.8245 16.5585 38.0373 17.8893 40.4062 20.2582C42.7751 22.6271 44.1059 25.8399 44.1059 29.1901V43.9269H35.6849V29.1901C35.6849 28.0733 35.2413 27.0024 34.4516 26.2128C33.662 25.4231 32.5911 24.9795 31.4744 24.9795C30.3577 24.9795 29.2867 25.4231 28.4971 26.2128C27.7074 27.0024 27.2638 28.0733 27.2638 29.1901V43.9269H18.8428V29.1901C18.8428 25.8399 20.1736 22.6271 22.5425 20.2582C24.9114 17.8893 28.1242 16.5585 31.4744 16.5585Z" fill="white" stroke="white" stroke-width="3" stroke-linecap="round" stroke-linejoin="round"/>
<path d="M2 18.6637H10.4211V43.9269H2V18.6637Z" fill="white" stroke="white" stroke-width="3" stroke-linecap="round" stroke-linejoin="round"/>
<path d="M10.4211 8.13728C10.4211 10.4627 8.53594 12.3478 6.21053 12.3478C3.88512 12.3478 2 10.4627 2 8.13728C2 5.81187 3.88512 3.92676 6.21053 3.92676C8.53594 3.92676 10.4211 5.81187 10.4211 8.13728Z" fill="white" stroke="white" stroke-width="3" stroke-linecap="round" stroke-linejoin="round"/>
</svg>
