<svg width="29" height="29" viewBox="0 0 29 29" fill="none" xmlns="http://www.w3.org/2000/svg">
<path d="M15.8889 20.0556H14.5V14.5H13.1111L15.8889 20.0556ZM14.5 8.94444H14.5139H14.5ZM27 14.5C27 16.1415 26.6767 17.767 26.0485 19.2835C25.4203 20.8001 24.4996 22.1781 23.3388 23.3388C22.1781 24.4996 20.8001 25.4203 19.2835 26.0485C17.767 26.6767 16.1415 27 14.5 27C12.8585 27 11.233 26.6767 9.71646 26.0485C8.19989 25.4203 6.8219 24.4996 5.66116 23.3388C4.50043 22.1781 3.57969 20.8001 2.95151 19.2835C2.32332 17.767 2 16.1415 2 14.5C2 11.1848 3.31696 8.00537 5.66116 5.66117C8.00537 3.31696 11.1848 2 14.5 2C17.8152 2 20.9946 3.31696 23.3388 5.66117C25.683 8.00537 27 11.1848 27 14.5Z" stroke="black" stroke-width="3" stroke-linecap="round" stroke-linejoin="round"/>
</svg>
