<svg width="41" height="40" viewBox="0 0 41 40" fill="none" xmlns="http://www.w3.org/2000/svg">
<path fill-rule="evenodd" clip-rule="evenodd" d="M0.975955 1.01763C1.60105 0.392724 2.44874 0.0416727 3.33262 0.0416727C4.2165 0.0416727 5.0642 0.392724 5.68929 1.01763L19.9993 15.3276L34.3093 1.01763C34.6168 0.699261 34.9846 0.44532 35.3913 0.270623C35.798 0.0959262 36.2354 0.00397191 36.678 0.000125857C37.1206 -0.0037202 37.5595 0.0806181 37.9691 0.248221C38.3788 0.415824 38.751 0.663334 39.0639 0.97631C39.3769 1.28929 39.6244 1.66146 39.792 2.07111C39.9596 2.48077 40.044 2.9197 40.0401 3.3623C40.0363 3.8049 39.9443 4.2423 39.7696 4.64897C39.5949 5.05566 39.341 5.42347 39.0226 5.73096L24.7126 20.041L39.0226 34.351C39.6298 34.9796 39.9658 35.8216 39.9582 36.6956C39.9506 37.5696 39.6 38.4057 38.982 39.0237C38.364 39.6417 37.528 39.9923 36.654 39.9999C35.78 40.0075 34.938 39.6715 34.3093 39.0643L19.9993 24.7543L5.68929 39.0643C5.06061 39.6715 4.21861 40.0075 3.34462 39.9999C2.47063 39.9923 1.63459 39.6417 1.01656 39.0237C0.398533 38.4057 0.0479685 37.5696 0.0403738 36.6956C0.0327791 35.8216 0.368762 34.9796 0.975955 34.351L15.286 20.041L0.975955 5.73096C0.351052 5.10587 0 4.25817 0 3.37429C0 2.49041 0.351052 1.64272 0.975955 1.01763Z" fill="black"/>
</svg>
