<svg width="35" height="35" viewBox="0 0 35 35" fill="none" xmlns="http://www.w3.org/2000/svg">
<path d="M18.7375 4.01286C18.4093 3.68479 17.9643 3.50049 17.5002 3.50049C17.0362 3.50049 16.5911 3.68479 16.263 4.01286L4.01297 16.2629C3.6942 16.5929 3.51781 17.035 3.52179 17.4938C3.52578 17.9527 3.70983 18.3916 4.03429 18.716C4.35876 19.0405 4.79768 19.2246 5.25652 19.2285C5.71537 19.2325 6.15742 19.0561 6.48747 18.7374L7.00022 18.2246V29.7501C7.00022 30.2142 7.1846 30.6594 7.51279 30.9876C7.84098 31.3157 8.28609 31.5001 8.75022 31.5001H12.2502C12.7144 31.5001 13.1595 31.3157 13.4877 30.9876C13.8158 30.6594 14.0002 30.2142 14.0002 29.7501V26.2501C14.0002 25.786 14.1846 25.3409 14.5128 25.0127C14.841 24.6845 15.2861 24.5001 15.7502 24.5001H19.2502C19.7144 24.5001 20.1595 24.6845 20.4877 25.0127C20.8158 25.3409 21.0002 25.786 21.0002 26.2501V29.7501C21.0002 30.2142 21.1846 30.6594 21.5128 30.9876C21.841 31.3157 22.2861 31.5001 22.7502 31.5001H26.2502C26.7143 31.5001 27.1595 31.3157 27.4877 30.9876C27.8158 30.6594 28.0002 30.2142 28.0002 29.7501V18.2246L28.513 18.7374C28.843 19.0561 29.2851 19.2325 29.7439 19.2285C30.2028 19.2246 30.6417 19.0405 30.9662 18.716C31.2906 18.3916 31.4747 17.9527 31.4787 17.4938C31.4826 17.035 31.3062 16.5929 30.9875 16.2629L18.7375 4.01286Z" fill="#F6D249"/>
</svg>
