<svg width="46" height="46" viewBox="0 0 46 46" fill="none" xmlns="http://www.w3.org/2000/svg">
<path d="M33 3H13C7.47715 3 3 7.47715 3 13V33C3 38.5228 7.47715 43 13 43H33C38.5228 43 43 38.5228 43 33V13C43 7.47715 38.5228 3 33 3Z" stroke="white" stroke-width="6" stroke-linecap="round" stroke-linejoin="round"/>
<path d="M30.9994 21.74C31.2462 23.4045 30.9619 25.1044 30.1869 26.598C29.4119 28.0916 28.1857 29.3028 26.6827 30.0593C25.1796 30.8159 23.4763 31.0792 21.815 30.8119C20.1537 30.5445 18.6189 29.7602 17.4291 28.5703C16.2392 27.3805 15.4549 25.8457 15.1875 24.1844C14.9202 22.5231 15.1835 20.8198 15.9401 19.3167C16.6966 17.8137 17.9078 16.5875 19.4014 15.8125C20.895 15.0375 22.5949 14.7532 24.2594 15C25.9573 15.2518 27.5291 16.0429 28.7428 17.2566C29.9565 18.4703 30.7476 20.0421 30.9994 21.74Z" stroke="white" stroke-width="6" stroke-linecap="round" stroke-linejoin="round"/>
</svg>
