<svg width="46" height="44" viewBox="0 0 46 44" fill="none" xmlns="http://www.w3.org/2000/svg">
<path d="M31.4744 14.6317C34.8245 14.6317 38.0373 15.9625 40.4062 18.3314C42.7751 20.7003 44.1059 23.9132 44.1059 27.2633V42.0001H35.6849V27.2633C35.6849 26.1466 35.2413 25.0756 34.4516 24.286C33.662 23.4964 32.5911 23.0528 31.4744 23.0528C30.3577 23.0528 29.2867 23.4964 28.4971 24.286C27.7074 25.0756 27.2638 26.1466 27.2638 27.2633V42.0001H18.8428V27.2633C18.8428 23.9132 20.1736 20.7003 22.5425 18.3314C24.9114 15.9625 28.1242 14.6317 31.4744 14.6317Z" fill="white" stroke="white" stroke-width="3" stroke-linecap="round" stroke-linejoin="round"/>
<path d="M2 16.7369H10.4211V42.0001H2V16.7369Z" fill="white" stroke="white" stroke-width="3" stroke-linecap="round" stroke-linejoin="round"/>
<path d="M10.4211 6.21053C10.4211 8.53594 8.53594 10.4211 6.21053 10.4211C3.88512 10.4211 2 8.53594 2 6.21053C2 3.88512 3.88512 2 6.21053 2C8.53594 2 10.4211 3.88512 10.4211 6.21053Z" fill="white" stroke="white" stroke-width="3" stroke-linecap="round" stroke-linejoin="round"/>
</svg>
