<svg width="27" height="33" viewBox="0 0 27 33" fill="none" xmlns="http://www.w3.org/2000/svg">
<path fill-rule="evenodd" clip-rule="evenodd" d="M4.45024 0C3.26996 0 2.13803 0.426793 1.30345 1.18649C0.468863 1.94618 0 2.97655 0 4.05093V28.3565C0 29.4309 0.468863 30.4612 1.30345 31.2209C2.13803 31.9806 3.26996 32.4074 4.45024 32.4074H22.2512C23.4315 32.4074 24.5634 31.9806 25.398 31.2209C26.2326 30.4612 26.7015 29.4309 26.7015 28.3565V10.9659C26.7012 9.89157 26.2322 8.86137 25.3975 8.10185L17.801 1.18692C16.9666 0.427173 15.8348 0.000229434 14.6547 0H4.45024ZM15.5758 12.1528C15.5758 11.6156 15.3414 11.1004 14.9241 10.7206C14.5068 10.3407 13.9409 10.1273 13.3507 10.1273C12.7606 10.1273 12.1946 10.3407 11.7773 10.7206C11.36 11.1004 11.1256 11.6156 11.1256 12.1528V16.2037H6.67536C6.08523 16.2037 5.51926 16.4171 5.10197 16.7969C4.68468 17.1768 4.45024 17.692 4.45024 18.2292C4.45024 18.7664 4.68468 19.2815 5.10197 19.6614C5.51926 20.0412 6.08523 20.2546 6.67536 20.2546H11.1256V24.3056C11.1256 24.8427 11.36 25.3579 11.7773 25.7378C12.1946 26.1176 12.7606 26.331 13.3507 26.331C13.9409 26.331 14.5068 26.1176 14.9241 25.7378C15.3414 25.3579 15.5758 24.8427 15.5758 24.3056V20.2546H20.0261C20.6162 20.2546 21.1822 20.0412 21.5995 19.6614C22.0168 19.2815 22.2512 18.7664 22.2512 18.2292C22.2512 17.692 22.0168 17.1768 21.5995 16.7969C21.1822 16.4171 20.6162 16.2037 20.0261 16.2037H15.5758V12.1528Z" fill="black"/>
</svg>
