<svg width="36" height="36" viewBox="0 0 36 36" fill="none" xmlns="http://www.w3.org/2000/svg">
<path fill-rule="evenodd" clip-rule="evenodd" d="M18 36C22.7739 36 27.3523 34.1036 30.7279 30.7279C34.1036 27.3523 36 22.7739 36 18C36 13.2261 34.1036 8.64773 30.7279 5.27208C27.3523 1.89642 22.7739 0 18 0C13.2261 0 8.64773 1.89642 5.27208 5.27208C1.89642 8.64773 0 13.2261 0 18C0 22.7739 1.89642 27.3523 5.27208 30.7279C8.64773 34.1036 13.2261 36 18 36ZM20.25 11.25C20.25 10.6533 20.0129 10.081 19.591 9.65901C19.169 9.23705 18.5967 9 18 9C17.4033 9 16.831 9.23705 16.409 9.65901C15.9871 10.081 15.75 10.6533 15.75 11.25V19.3185L12.8407 16.4093C12.4164 15.9994 11.848 15.7726 11.2581 15.7777C10.6682 15.7829 10.1038 16.0195 9.68666 16.4367C9.26949 16.8538 9.03286 17.4182 9.02773 18.0081C9.02261 18.598 9.24939 19.1664 9.65925 19.5907L16.4093 26.3407C16.8312 26.7626 17.4034 26.9995 18 26.9995C18.5966 26.9995 19.1688 26.7626 19.5907 26.3407L26.3407 19.5907C26.7506 19.1664 26.9774 18.598 26.9723 18.0081C26.9671 17.4182 26.7305 16.8538 26.3133 16.4367C25.8962 16.0195 25.3318 15.7829 24.7419 15.7777C24.152 15.7726 23.5836 15.9994 23.1593 16.4093L20.25 19.3185V11.25Z" fill="#F6D249"/>
</svg>
