<svg width="29" height="29" viewBox="0 0 29 29" fill="none" xmlns="http://www.w3.org/2000/svg">
<path d="M8.94444 7.55556V2V7.55556ZM20.0556 7.55556V2V7.55556ZM7.55556 13.1111H21.4444H7.55556ZM4.77778 27H24.2222C24.9589 27 25.6655 26.7073 26.1864 26.1864C26.7073 25.6655 27 24.9589 27 24.2222V7.55556C27 6.81884 26.7073 6.1123 26.1864 5.59137C25.6655 5.07044 24.9589 4.77778 24.2222 4.77778H4.77778C4.04107 4.77778 3.33453 5.07044 2.81359 5.59137C2.29266 6.1123 2 6.81884 2 7.55556V24.2222C2 24.9589 2.29266 25.6655 2.81359 26.1864C3.33453 26.7073 4.04107 27 4.77778 27Z" stroke="black" stroke-width="3" stroke-linecap="round" stroke-linejoin="round"/>
</svg>
