<svg width="26" height="29" viewBox="0 0 26 29" fill="none" xmlns="http://www.w3.org/2000/svg">
<path d="M20.7198 20.4694L14.9815 26.2076C14.7306 26.4588 14.4326 26.6581 14.1046 26.7941C13.7766 26.93 13.425 27 13.0699 27C12.7148 27 12.3632 26.93 12.0352 26.7941C11.7072 26.6581 11.4092 26.4588 11.1583 26.2076L5.41869 20.4694C3.90565 18.9563 2.87527 17.0285 2.45785 14.9297C2.04044 12.831 2.25472 10.6557 3.07362 8.67876C3.89252 6.70184 5.27925 5.01214 7.05845 3.82333C8.83765 2.63452 10.9294 2 13.0692 2C15.209 2 17.3008 2.63452 19.08 3.82333C20.8592 5.01214 22.2459 6.70184 23.0648 8.67876C23.8837 10.6557 24.098 12.831 23.6806 14.9297C23.2632 17.0285 22.2328 18.9563 20.7198 20.4694V20.4694Z" stroke="black" stroke-width="3" stroke-linecap="round" stroke-linejoin="round"/>
<path d="M17.1264 12.8188C17.1264 13.8949 16.699 14.9268 15.9381 15.6877C15.1772 16.4486 14.1453 16.876 13.0692 16.876C11.9932 16.876 10.9612 16.4486 10.2003 15.6877C9.43947 14.9268 9.01202 13.8949 9.01202 12.8188C9.01202 11.7428 9.43947 10.7108 10.2003 9.94995C10.9612 9.18907 11.9932 8.76162 13.0692 8.76162C14.1453 8.76162 15.1772 9.18907 15.9381 9.94995C16.699 10.7108 17.1264 11.7428 17.1264 12.8188Z" stroke="black" stroke-width="3" stroke-linecap="round" stroke-linejoin="round"/>
</svg>
